HIERARCHY
ROOT joint_0
{
	OFFSET 0.000000 0.000000 0.000000
	CHANNELS 6 Xposition Yposition Zposition Zrotation Yrotation Xrotation 
	JOINT joint_1
	{
		OFFSET 0.000000 0.000000 0.000000
		CHANNELS 3 Zrotation Yrotation Xrotation
		JOINT joint_2
		{
			OFFSET 3.811170 -8.520760 0.839290
			CHANNELS 3 Zrotation Yrotation Xrotation
			JOINT joint_3
			{
				OFFSET 2.562200 -7.039590 0.000000
				CHANNELS 3 Zrotation Yrotation Xrotation
				JOINT joint_4
				{
					OFFSET 0.157640 -0.433110 2.322550
					CHANNELS 3 Zrotation Yrotation Xrotation
					End Site
					{
						OFFSET 0.000000 0.000000 0.000000
					}
				}
			}
		}
	}
	JOINT joint_5
	{
		OFFSET 0.000000 0.000000 0.000000
		CHANNELS 3 Zrotation Yrotation Xrotation
		JOINT joint_6
		{
			OFFSET -3.848050 -8.780180 0.839290
			CHANNELS 3 Zrotation Yrotation Xrotation
			JOINT joint_7
			{
				OFFSET -2.568260 -7.056230 0.000000
				CHANNELS 3 Zrotation Yrotation Xrotation
				JOINT joint_8
				{
					OFFSET -0.164730 -0.452590 2.363150
					CHANNELS 3 Zrotation Yrotation Xrotation
					End Site
					{
						OFFSET 0.000000 0.000000 0.000000
					}
				}
			}
		}
	}
	JOINT joint_9
	{
		OFFSET 0.028270 2.035590 -0.193380
		CHANNELS 3 Zrotation Yrotation Xrotation
		JOINT joint_10
		{
			OFFSET 0.056720 2.048850 -0.042750
			CHANNELS 3 Zrotation Yrotation Xrotation
			JOINT joint_11
			{
				OFFSET -0.054170 1.746240 0.172020
				CHANNELS 3 Zrotation Yrotation Xrotation
				JOINT joint_12
				{
					OFFSET 0.104070 1.761360 -0.123970
					CHANNELS 3 Zrotation Yrotation Xrotation
					End Site
					{
						OFFSET 0.000000 0.000000 0.000000
					}
				}
			}
			JOINT joint_13
			{
				OFFSET 3.362410 1.200890 -0.311210
				CHANNELS 3 Zrotation Yrotation Xrotation
				JOINT joint_14
				{
					OFFSET 4.983000 -0.000000 -0.000000
					CHANNELS 3 Zrotation Yrotation Xrotation
					JOINT joint_15
					{
						OFFSET 3.483560 -0.000000 -0.000000
						CHANNELS 3 Zrotation Yrotation Xrotation
						JOINT joint_16
						{
							OFFSET 0.715260 -0.000000 -0.000000
							CHANNELS 3 Zrotation Yrotation Xrotation
							End Site
							{
								OFFSET 0.000000 0.000000 0.000000
							}
						}
					}
				}
			}
			JOINT joint_17
			{
				OFFSET -3.136600 1.374050 -0.404650
				CHANNELS 3 Zrotation Yrotation Xrotation
				JOINT joint_18
				{
					OFFSET -5.241900 -0.000000 -0.000000
					CHANNELS 3 Zrotation Yrotation Xrotation
					JOINT joint_19
					{
						OFFSET -3.444170 -0.000000 -0.000000
						CHANNELS 3 Zrotation Yrotation Xrotation
						JOINT joint_20
						{
							OFFSET -0.622530 -0.000000 -0.000000
							CHANNELS 3 Zrotation Yrotation Xrotation
							End Site
							{
								OFFSET 0.000000 0.000000 0.000000
							}
						}
					}
				}
			}
		}
	}
}
MOTION
Frames: 13
Frame Time: 0.031667
-2.459858 14.507683 5.742495 170.276443 -42.221558 178.379807 -69.618745 -26.090996 -49.135612 -30.649733 -1.399925 26.724141 -28.787991 8.214955 -36.381617 1.658582 -1.171178 -3.770626 -27.468458 -7.385530 20.527464 69.107151 -15.207367 -10.597710 30.942724 1.490138 -98.220238 0.059102 -0.729503 3.349837 -1.431247 11.550339 -4.696453 -6.202027 -4.883204 -13.380411 3.973082 5.312329 7.747333 2.323516 -2.136845 3.777805 -82.574296 -5.652709 -7.748876 12.623155 -71.172265 -0.182648 -3.749600 -2.046863 -9.110920 -7.219483 -0.050782 -0.033184 83.104606 24.052605 43.149146 -140.243180 60.980662 -118.569668 -3.992884 5.078054 2.711762 7.288124 -0.011322 0.052434 
-2.618448 14.527208 5.658350 170.375656 -37.557163 178.634201 -63.388513 -22.367886 -58.924766 -41.825254 10.080662 33.974082 -16.372583 3.483501 -10.254000 2.241479 -1.621488 -5.380023 -17.225551 -9.463605 15.325488 63.647555 -16.319702 -10.964472 28.956898 3.874699 -108.293995 -0.767332 -0.550394 3.125353 0.293486 2.206957 -5.183055 -4.578506 -7.161291 -5.252364 7.845492 6.403018 8.620433 5.241871 -1.965131 6.264601 -60.946393 -3.232445 -9.417295 6.180147 -82.873014 2.149268 5.572195 -3.088827 -15.472021 -7.287543 -0.050272 -0.066827 88.050455 18.771431 34.858106 153.732964 51.615174 139.497921 5.762699 3.886385 -13.077716 7.369114 -0.039485 0.033460 
-2.764054 14.545231 5.564871 170.413406 -32.941769 178.892181 -48.594358 -10.827106 -69.147408 -43.654761 1.233276 27.759115 -1.766650 9.736620 -17.202709 2.078615 -1.239966 -4.343737 0.346509 -6.823087 19.377260 72.666608 -11.538921 -8.228794 53.550609 -11.655654 -93.260865 -0.996104 -1.087748 4.682590 3.051372 8.370862 -7.419321 22.950395 -0.488335 -0.719565 -5.675500 3.259399 4.514326 4.994259 -1.808290 7.590525 -72.799448 0.800591 -57.796460 11.675333 -82.763581 2.643385 0.896624 4.609098 -3.098457 -7.291973 -0.074575 -0.077055 79.947719 25.342223 51.448427 125.050582 48.461963 99.790944 1.514564 5.508568 -3.568756 7.368727 -0.049892 0.022605 
-2.906213 14.562422 5.467940 170.488632 -28.315804 179.197021 -38.746693 -12.587124 -66.628249 -20.164271 -2.733872 27.663033 13.669592 6.454735 -18.572054 1.044650 -0.261654 -0.947928 1.782786 -17.832347 30.723222 71.051357 -13.542865 -22.910618 33.267724 1.538788 -81.353249 -0.020494 -0.939762 3.843773 -8.517942 1.193999 5.793505 0.139730 -3.139485 -10.447190 -1.896960 6.482616 16.372880 1.522940 -3.212438 4.952955 -101.712862 0.043271 -40.710793 -6.033051 -81.899344 -0.434915 5.455174 0.860516 5.865656 -7.304531 -0.090357 -0.061310 112.673949 26.594187 42.747695 149.419945 53.149262 104.221790 -1.065821 6.373533 -0.822089 7.374552 -0.027819 0.042544 
-3.037075 14.576888 5.359700 170.548111 -23.823706 179.467407 -36.055114 -2.124982 -53.941538 -28.352016 3.852689 24.824466 28.294030 0.127585 9.733522 0.580329 -0.695905 -1.838461 -5.463317 -13.016730 20.509383 65.968638 -15.532841 -26.969789 35.241850 1.907378 -100.759121 0.485551 -0.666603 3.125174 -5.999468 4.995688 -0.864631 10.385245 -3.724238 -0.595721 -9.251899 0.159885 10.114428 -0.974082 -4.518267 4.319252 -111.399135 -8.322859 -34.902267 3.588775 -88.684399 -0.784714 2.516504 -1.895345 3.647306 -7.327435 -0.096738 -0.040121 156.378547 27.233716 48.351001 -159.470839 60.130767 -143.497123 -6.282569 2.760899 22.785641 7.390684 -0.008102 0.058593 
-3.164959 14.590025 5.247998 170.648514 -19.354546 179.764572 -47.055711 -13.831115 -47.222944 -23.519331 6.847742 21.073662 19.372942 -1.823997 -7.273264 0.860008 -0.606502 -1.384157 -11.615041 -7.038231 15.188809 65.602922 -8.742006 -17.863395 24.906088 -7.448635 -82.149943 0.805334 -0.816080 2.885248 -0.663235 3.185922 -8.844771 2.137332 0.520798 -10.626816 -2.674579 0.391045 6.400707 -1.231278 -4.401042 4.437394 -104.317158 -7.302609 0.356395 5.994761 -85.836401 -5.031977 7.849435 -2.812568 20.715197 -7.291270 -0.099700 -0.031951 101.340432 30.570482 23.668916 -148.413333 61.677314 -112.556554 1.658014 2.687795 8.482939 7.347357 -0.004800 0.072337 
-3.282469 14.598531 5.124234 170.778320 -15.053505 -179.976471 -63.118277 -19.600263 -53.948714 -29.078765 10.801906 32.920614 35.466563 -3.235099 6.945619 1.556283 0.258561 1.680103 -14.071903 -13.974227 16.277748 72.481380 -15.553688 -8.726917 40.909452 -10.700795 -112.436832 0.604376 -0.862614 2.989576 11.466165 9.982558 11.803860 -10.257251 -2.958115 -17.695663 12.972589 -6.633129 15.308291 -2.804426 -3.688526 5.363322 -89.680992 -13.028607 -12.034880 -4.053699 -80.303040 6.814389 -4.345733 -4.551227 15.938477 -7.330179 -0.096406 -0.054606 112.715996 31.667301 42.493622 -142.449085 49.322649 -117.741637 1.798737 7.044444 -11.888355 7.404398 -0.026802 0.090364 
-3.397201 14.605514 4.997565 170.957077 -10.781870 -179.693497 -62.501538 -28.727632 -61.435250 -24.731611 -0.451302 36.402975 -45.605692 -11.746110 -13.910115 2.482374 0.726019 3.043036 -0.747945 -7.942426 6.437341 75.944184 -19.699020 0.452376 31.804598 -12.508924 -111.245299 0.202728 -2.147098 6.622484 12.269359 5.256060 0.649823 -8.611008 -1.394533 -10.643637 3.644486 1.275499 21.889867 -3.498433 -3.907342 5.883534 -62.143861 -22.968804 -8.112794 4.860466 -84.241306 12.236169 4.388589 -6.064930 2.052841 -7.285969 -0.095376 -0.072953 104.655512 31.609323 50.570915 -157.148979 44.065152 -139.924241 0.525657 1.144407 -4.591157 7.374429 -0.039703 0.065296 
-3.501622 14.606843 4.860115 171.189468 -6.673385 -179.448105 -57.687942 -16.134761 -55.142122 -24.782725 7.912058 37.735204 -30.542031 -13.464771 -14.993679 2.747572 0.222260 1.050036 -0.301256 -0.178300 11.627757 71.744567 -15.422509 -2.015331 31.116108 -4.696821 -98.520383 0.161786 -2.473085 7.816543 3.742393 10.529525 5.661134 -10.880539 -1.318699 -1.949879 1.418785 -2.638327 4.491197 0.429536 -4.427994 7.351754 -48.514117 -11.353736 3.562743 12.598469 -83.782891 4.030635 -1.822129 -2.254539 0.987201 -7.276752 -0.071971 -0.084209 99.888504 29.200288 74.690133 165.969718 47.300817 149.893134 -0.081058 2.127077 -1.343457 7.371210 -0.052194 0.044585 
-3.603539 14.607029 4.720396 171.478287 -2.584581 -179.173004 -36.466387 -17.008832 -67.107558 -34.200277 2.447066 48.716765 -25.788897 -9.220640 -17.606483 2.567670 -0.937095 -2.295276 -11.463031 -12.369066 12.744724 65.108068 -26.243356 -5.013503 28.269840 -6.905240 -86.081557 0.474772 -0.917949 3.935146 1.501029 3.399896 2.937759 -3.934451 -8.432140 -16.560277 7.055950 0.402961 31.179397 2.190898 -4.589757 8.452341 -36.166439 -6.145423 -3.659988 175.528612 -85.690326 -166.175483 9.022746 -0.285092 12.405766 -7.281298 -0.054233 -0.113366 88.857489 32.044143 72.220528 131.642216 45.902527 101.753954 2.525479 1.646207 -13.145368 7.359953 -0.081590 0.008916 
-3.695530 14.602684 4.571686 171.832626 1.375654 -178.939560 -41.764397 -12.096502 -54.631292 -28.900839 6.811287 30.010868 -6.690846 -13.757184 -8.689987 2.151606 -1.539680 -4.539039 -1.879805 -7.406660 18.528915 66.261728 -17.231951 -11.128314 30.007009 -5.581410 -100.902788 0.553961 -1.430865 5.786225 14.288798 1.793050 -3.756010 -7.767887 -19.106993 1.234671 12.866965 5.289418 10.000848 -0.695517 -5.067680 6.478703 -48.343031 -6.261240 -10.736262 176.076750 -79.098080 -174.269386 5.329925 -1.972772 -0.901760 -7.265714 -0.056680 -0.111304 94.093779 35.802581 57.120899 114.588016 50.832339 91.570477 -5.483037 -4.343726 7.961385 7.344554 -0.082786 -0.002613 
-3.785338 14.597994 4.421126 172.246323 5.330235 -178.664795 -37.210287 -7.843864 -58.703830 -42.335681 5.437946 36.373121 7.616171 -16.432525 -7.414516 2.076829 -1.322690 -3.505722 -18.666154 -3.759610 11.179305 63.174107 -12.263363 -11.640469 25.655113 -4.124284 -94.665684 0.260238 -3.096871 10.847601 -16.213221 5.120007 -1.281400 -3.957990 -0.778371 -5.409030 6.793044 -1.299429 8.976518 -2.057005 -5.775674 3.667394 -54.117194 -1.150699 -15.953823 -172.808230 -82.872558 -179.156997 5.499522 7.491667 0.464657 -7.226609 -0.075523 -0.097256 95.134399 30.269810 61.043115 155.319031 52.982934 131.264568 4.720215 4.518742 -6.728248 7.304782 -0.064715 0.001038 
-3.865871 14.591835 4.262709 172.722534 9.200757 -178.432083 -28.201755 -4.696836 -59.347486 -23.398884 -0.916793 31.526353 -2.226421 -11.542689 -13.865424 2.346656 -0.805904 -1.609519 -10.532104 -17.337964 17.908409 61.249851 -14.013805 -6.216378 45.245147 -8.120510 -76.357601 0.477276 -2.011270 7.587412 10.565690 6.225407 -6.148344 -7.346560 0.104592 -10.515107 10.135995 3.582056 9.613788 -2.444486 -5.647566 1.903048 -61.934339 -0.115179 -2.848230 174.557418 -80.852359 -165.502826 3.045116 -4.804662 3.044893 -7.204907 -0.090909 -0.098965 100.560192 44.658492 50.018623 -156.752650 44.991926 -139.614796 -5.286642 6.795027 3.687613 7.293497 -0.063525 0.005795 
